<?xml version="1.0" standalone="no"?><!DOCTYPE svg PUBLIC "-//W3C//DTD SVG 1.1//EN" "http://www.w3.org/Graphics/SVG/1.1/DTD/svg11.dtd"><svg t="1579239555273" class="icon" viewBox="0 0 1024 1024" version="1.1" xmlns="http://www.w3.org/2000/svg" p-id="1591" width="24" height="24" xmlns:xlink="http://www.w3.org/1999/xlink"><defs><style type="text/css"></style></defs><path d="M508.324462 38.192583c1.433455 0 3.276468-0.819117 5.529041-2.252572 4.505144-3.071689 10.443743-8.191171 18.020576-15.768004 9.010288-8.191171 18.020576-14.334549 27.030863-18.020575 9.010288-3.686027 20.887486-2.662131 36.041152 3.276468 7.576833 2.252572 13.515432 5.52904 18.020576 9.624626 4.505144 4.095585 8.805509 7.986392 12.901094 11.877197 4.095585 3.686027 8.600729 6.962495 13.515432 9.624626 4.914703 2.662131 11.058081 3.890806 18.634914 3.890806s13.924991-1.023896 19.044473-3.276468c5.324261-2.252572 10.238964-4.300365 15.153666-6.143378 4.914703-1.843013 9.829405-3.276468 14.539328-3.890806 4.914703-0.819117 10.648522 0 17.406238 2.252572 7.576833 3.071689 12.491536 7.372054 15.153666 12.901094 2.662131 5.52904 3.276468 11.467639 2.252572 17.406238-1.023896 5.938599-3.686027 12.081977-7.781612 18.020576-4.095585 5.938599-9.215067 10.853301-15.153666 14.539328-14.334549 9.010288-25.18785 18.225355-32.559904 27.440423-7.576833 9.419847-14.948887 19.249252-22.52572 29.692994-3.686027 5.324261-7.781612 11.26286-12.286757 18.020576-4.505144 6.757716-8.600729 13.515432-12.286756 20.273148-4.505144 8.191171-9.419847 16.177563-14.539328 23.549616H391.600277c-5.324261-9.010288-10.443743-17.611017-15.768004-25.802188-4.505144-7.576833-9.419847-14.948887-14.539328-22.52572-5.324261-7.576833-9.829405-14.334549-13.515432-20.273148-7.576833-11.26286-15.972783-21.092265-25.39263-29.692994-9.419847-8.600729-18.634914-16.382342-27.440422-23.140058-9.829405-6.757716-16.587121-15.972783-20.273148-27.440422-3.686027-11.672419-0.409559-21.501824 10.034184-29.692995 5.324261-3.686027 11.26286-5.324261 18.020576-4.505144 6.757716 0.819117 13.924991 2.252572 21.297044 4.505144 7.576833 2.252572 14.744108 4.505144 21.911382 6.757716 7.167275 2.252572 13.720211 2.662131 19.65881 1.023896 10.443743-2.252572 18.430135-6.143378 23.549617-11.877197 5.324261-5.52904 14.334549-12.491536 27.030864-20.887486 9.829405-5.938599 20.682706-7.986392 32.559904-6.143378s20.887486 5.73382 27.030864 11.877197c3.071689 3.686027 6.143378 6.962495 9.624626 9.624626 3.276468 2.662131 6.962495 5.119482 10.648522 7.372054 3.686027 2.86691 7.781612 5.52904 12.286756 7.781612z m127.167928 224.847641c9.010288 12.081977 20.273148 25.18785 33.78858 39.317621 11.26286 12.696315 25.18785 27.235643 41.570192 43.208426s35.631593 33.174242 57.338197 51.194818c18.020576 15.768004 36.45071 34.198138 55.699962 55.699962 19.044472 21.297044 35.836373 46.280116 49.966142 74.744435 14.334549 28.464319 24.163954 61.229002 29.692995 98.29405 5.52904 37.065048 4.709923 78.430461-2.86691 124.301018-6.757716 37.474607-20.068369 72.901421-39.931958 106.280443-19.863589 33.379021-46.280116 62.457678-79.249579 87.03119-32.969463 24.778292-72.082304 44.437102-117.543302 58.976431-45.256219 14.539328-96.860596 21.911382-154.60835 21.911382-59.18121 0-111.604703-8.39595-157.270482-25.39263-45.665778-16.7919-84.573839-38.703282-116.314626-65.734146s-57.133417-57.133417-75.97311-90.512438c-18.634914-33.379021-31.126449-66.553263-37.065048-99.522727-6.757716-36.65549-7.781612-71.877525-2.86691-105.666104s13.720211-65.324588 26.416526-95.017583 28.669098-56.723858 47.71357-81.50215c19.044472-24.778292 39.931958-46.894453 62.457678-66.348484 19.454031-17.201459 37.065048-33.583801 52.833053-48.942246 15.768004-15.358445 28.873877-29.488215 39.31762-42.18453 12.696315-14.334549 23.959175-27.645202 33.78858-40.546296h253.10718zM516.310854 608.093298L486.003522 577.785966l-23.549617-23.549617c-7.576833-7.576833-12.696315-13.105873-15.768004-16.7919-5.938599-5.324261-13.924991-9.624626-23.549616-12.901094-9.829405-3.276468-18.020576-1.228676-24.778292 6.143378-5.938599 8.191171-7.576833 16.382342-4.505144 24.163954 3.071689 7.781612 6.348157 14.12977 10.034184 18.634914l16.791901 15.768004c8.191171 9.010288 17.201459 18.634914 27.030864 29.283436 11.26286 12.081977 23.549616 24.778292 37.065048 38.293724l-1.023896 23.549616H407.163502c-6.757716 0-12.491536 2.662131-17.406238 7.781613-4.914703 5.324261-7.372054 10.853301-7.372054 16.7919 0 5.938599 2.252572 11.26286 6.757716 15.768004s10.443743 6.757716 18.020576 6.757716H483.54617v39.31762H407.163502c-6.757716 0-12.491536 2.047793-17.406238 6.143378-4.914703 4.095585-7.372054 9.624626-7.372054 16.382342-0.819117 5.938599 1.228676 11.058081 6.143378 15.153666s11.058081 6.143378 18.634914 6.143378H483.54617v22.52572c0.819117 10.443743 4.095585 17.815797 10.034185 21.911382 5.938599 4.095585 13.515432 6.143378 22.52572 6.143379 9.010288 0.819117 16.382342-2.047793 21.911382-8.395951 5.52904-6.348157 8.39595-12.901094 8.39595-19.65881v-22.52572h78.63524c7.576833 0 13.720211-1.638234 18.634914-5.119481 4.914703-3.276468 6.962495-8.805509 6.143378-16.382342 0-15.768004-10.443743-23.549616-31.536008-23.549617h-71.877524l1.023896-38.293723 73.1062-1.023897c10.443743 0.819117 18.020576-1.228676 22.52572-6.143378 4.505144-4.914703 6.757716-10.648522 6.757716-17.406238 0-5.938599-2.457351-11.467639-7.372053-16.382342-4.914703-4.914703-12.491536-7.372054-23.140058-7.372054h-73.1062V657.649882c12.696315-12.081977 24.368733-23.549616 34.812476-34.812476 9.010288-9.010288 18.020576-18.225355 27.030864-27.440423 9.010288-9.419847 15.768004-15.972783 20.273148-19.65881 17.201459-14.948887 20.887486-28.05476 11.26286-39.31762-5.324261-6.757716-12.081977-10.034184-20.273148-10.034185s-15.768004 3.071689-22.52572 9.010288c-3.686027 3.071689-10.034184 8.39595-19.044472 16.382342-9.010288 7.781612-18.020576 15.972783-27.030864 24.163954-10.034184 9.215067-21.706603 20.068369-34.402918 32.150346z" fill="#FFC300" p-id="1592"></path></svg>