<?xml version="1.0" standalone="no"?><!DOCTYPE svg PUBLIC "-//W3C//DTD SVG 1.1//EN" "http://www.w3.org/Graphics/SVG/1.1/DTD/svg11.dtd"><svg t="1579239162991" class="icon" viewBox="0 0 1261 1024" version="1.1" xmlns="http://www.w3.org/2000/svg" p-id="1170" width="29.5546875" height="24" xmlns:xlink="http://www.w3.org/1999/xlink"><defs><style type="text/css"></style></defs><path d="M116.527407 0h1028.171852c52.906667 7.300741 102.779259 42.951111 116.337778 96.331852v257.042963c-42.761481 5.878519-86.660741 19.626667-115.38963 53.854815-52.622222 54.613333-54.708148 147.721481-4.361481 204.515555 28.634074 37.262222 74.903704 52.622222 119.751111 59.164445V926.340741c-12.515556 54.234074-63.051852 90.263704-116.242963 97.659259H116.337778C63.336296 1016.699259 13.368889 981.048889 0 927.478519V670.625185c44.847407-6.068148 91.022222-21.712593 119.751111-58.785185 50.536296-56.888889 48.260741-150.376296-4.740741-204.98963-28.634074-34.038519-72.533333-47.407407-115.01037-53.665185V97.659259C12.515556 43.33037 63.146667 7.205926 116.527407 0m341.522963 241.114074c-21.238519 8.059259-24.936296 32.711111-24.367407 52.622222 0.474074 148.764444-0.474074 297.623704 0.379259 446.482963-3.792593 27.875556 26.737778 56.888889 53.475556 42.571852 21.712593-7.86963 25.125926-32.900741 24.557037-52.811852-0.474074-148.859259 0.474074-297.718519-0.474074-446.482963 3.602963-27.875556-26.832593-56.604444-53.570371-42.382222z" fill="#FFC300" p-id="1171"></path></svg>